<?xml version="1.0" standalone="no"?><!DOCTYPE svg PUBLIC "-//W3C//DTD SVG 1.1//EN" "http://www.w3.org/Graphics/SVG/1.1/DTD/svg11.dtd"><svg t="1688351857922" class="icon" viewBox="0 0 1024 1024" version="1.1" xmlns="http://www.w3.org/2000/svg" p-id="3235" xmlns:xlink="http://www.w3.org/1999/xlink" width="200" height="200"><path d="M716.8 0H307.2C137.5488 0 0 137.5488 0 307.2v409.6c0 169.6512 137.5488 307.2 307.2 307.2h409.6c169.6512 0 307.2-137.5488 307.2-307.2V307.2c0-169.6512-137.5488-307.2-307.2-307.2z" fill="#FFEFCF" p-id="3236"></path><path d="M230.4 716.8a25.6 25.6 0 0 1 25.6-25.6h486.4a25.6 25.6 0 0 1 25.6 25.6v25.6a25.6 25.6 0 0 1-25.6 25.6H256a25.6 25.6 0 0 1-25.6-25.6v-25.6z" fill="#FEBF60" p-id="3237"></path><path d="M256 256a25.6 25.6 0 0 0-25.6 25.6v332.8a25.6 25.6 0 0 0 25.6 25.6h486.4a25.6 25.6 0 0 0 25.6-25.6V281.6a25.6 25.6 0 0 0-25.6-25.6H256z m396.8 128c-7.8336 0-15.104-2.3552-21.1968-6.3744l-100.352 100.3776a38.4 38.4 0 1 1-57.216-7.808l-8.0384-13.8752a38.2208 38.2208 0 0 1-38.7072-1.5616l-49.3312 49.3568a38.4 38.4 0 1 1-9.9584-10.496l48.8192-48.8192a38.4 38.4 0 1 1 61.2352 1.536l9.3952 16.2816a38.4256 38.4256 0 0 1 33.6896 5.0432l100.1472-100.1216A38.4 38.4 0 1 1 652.8 384z" fill="#FA8A0C" p-id="3238"></path><path d="M460.8 729.6a12.8 12.8 0 0 1 12.8-12.8h179.2a12.8 12.8 0 0 1 0 25.6h-179.2a12.8 12.8 0 0 1-12.8-12.8zM691.2 729.6a12.8 12.8 0 0 1 25.6 0 12.8 12.8 0 0 1-25.6 0z" fill="#FFFFFF" p-id="3239"></path></svg>