<?xml version="1.0" standalone="no"?><!DOCTYPE svg PUBLIC "-//W3C//DTD SVG 1.1//EN" "http://www.w3.org/Graphics/SVG/1.1/DTD/svg11.dtd"><svg t="1689758127189" class="icon" viewBox="0 0 1024 1024" version="1.1" xmlns="http://www.w3.org/2000/svg" p-id="20650" xmlns:xlink="http://www.w3.org/1999/xlink" width="200" height="200"><path d="M220.525714 521.508571m-180.845714 0a180.845714 180.845714 0 1 0 361.691429 0 180.845714 180.845714 0 1 0-361.691429 0Z" p-id="20651"></path><path d="M751.36 883.2m-140.8 0a140.8 140.8 0 1 0 281.6 0 140.8 140.8 0 1 0-281.6 0Z" p-id="20652"></path><path d="M843.702857 140.8m-140.8 0a140.8 140.8 0 1 0 281.6 0 140.8 140.8 0 1 0-281.6 0Z" p-id="20653"></path><path d="M282.477714 654.939429l40.228572-69.668572L711.314286 809.618286l-40.228572 69.668571zM293.485714 419.675429L731.666286 166.692571l40.228571 69.668572L333.714286 489.380571z" p-id="20654"></path></svg>