<?xml version="1.0" standalone="no"?><!DOCTYPE svg PUBLIC "-//W3C//DTD SVG 1.1//EN" "http://www.w3.org/Graphics/SVG/1.1/DTD/svg11.dtd"><svg t="1689758352777" class="icon" viewBox="0 0 1024 1024" version="1.1" xmlns="http://www.w3.org/2000/svg" p-id="29165" xmlns:xlink="http://www.w3.org/1999/xlink" width="200" height="200"><path d="M0 0h1024v1024H0z" fill-opacity="0" p-id="29166"></path><path d="M96 213.333333A32 32 0 0 1 128 181.333333h554.666667a32 32 0 1 1 0 64H128A32 32 0 0 1 96 213.333333zM896 480H128a32 32 0 1 0 0 64h768a32 32 0 1 0 0-64z m-384 298.666667H128a32 32 0 1 0 0 64h384a32 32 0 1 0 0-64z" p-id="29167"></path></svg>