<?xml version="1.0" standalone="no"?><!DOCTYPE svg PUBLIC "-//W3C//DTD SVG 1.1//EN" "http://www.w3.org/Graphics/SVG/1.1/DTD/svg11.dtd"><svg t="1689820751914" class="icon" viewBox="0 0 1024 1024" version="1.1" xmlns="http://www.w3.org/2000/svg" p-id="8572" xmlns:xlink="http://www.w3.org/1999/xlink" width="200" height="200"><path d="M510.51 960.74c-60.5 0-119.19-11.85-174.46-35.23-53.37-22.57-101.3-54.89-142.45-96.04-41.15-41.15-73.47-89.08-96.04-142.45-23.38-55.27-35.23-113.96-35.23-174.46 0-60.5 11.85-119.19 35.23-174.46 22.57-53.37 54.89-101.3 96.04-142.45s89.08-73.47 142.45-96.04c55.27-23.38 113.96-35.23 174.46-35.23S629.7 76.24 684.97 99.62c53.37 22.57 101.3 54.89 142.45 96.04s73.47 89.08 96.04 142.45c23.38 55.27 35.23 113.96 35.23 174.46 0 60.49-11.85 119.19-35.23 174.46-22.57 53.37-54.89 101.3-96.04 142.45-41.15 41.15-89.08 73.47-142.45 96.04-55.27 23.37-113.97 35.22-174.46 35.22z m0-858.04c-226 0-409.86 183.86-409.86 409.86 0 225.66 184.2 409.86 409.86 409.86 226 0 409.86-183.86 409.86-409.86 0-225.65-184.2-409.86-409.86-409.86z" p-id="8573"></path><path d="M668.33 542.02l-256.61 108.3c-9.95 4.2-20.71-3.95-19.38-14.66l34.52-276.38c1.34-10.72 13.78-15.97 22.39-9.45l222.09 168.09c8.62 6.51 6.95 19.9-3.01 24.1z" fill="#B3B3B3" p-id="8574"></path><path d="M671.57 510.44L439.86 665.01c-8.98 5.99-21.09 0.01-21.79-10.76l-18-277.95c-0.7-10.78 10.53-18.27 20.21-13.48L670 486.19c9.68 4.79 10.55 18.26 1.57 24.25z" p-id="8575"></path></svg>