<?xml version="1.0" standalone="no"?><!DOCTYPE svg PUBLIC "-//W3C//DTD SVG 1.1//EN" "http://www.w3.org/Graphics/SVG/1.1/DTD/svg11.dtd"><svg t="1689820805929" class="icon" viewBox="0 0 1024 1024" version="1.1" xmlns="http://www.w3.org/2000/svg" p-id="8733" xmlns:xlink="http://www.w3.org/1999/xlink" width="200" height="200"><path d="M510.67 960.57c-60.34 0-118.88-11.82-174.01-35.14-53.24-22.52-101.04-54.75-142.09-95.79s-73.28-88.85-95.79-142.09c-23.32-55.13-35.14-113.68-35.14-174.01 0-60.34 11.82-118.88 35.14-174.01 22.52-53.24 54.75-101.04 95.79-142.09s88.85-73.28 142.09-95.79C391.79 78.32 450.34 66.5 510.67 66.5s118.88 11.82 174.01 35.14c53.24 22.52 101.04 54.75 142.09 95.79s73.28 88.85 95.79 142.09c23.32 55.13 35.14 113.67 35.14 174.01 0 60.34-11.82 118.88-35.14 174.01-22.52 53.24-54.75 101.04-95.79 142.09s-88.85 73.28-142.09 95.79c-55.12 23.33-113.67 35.15-174.01 35.15z m0-844.07c-218.93 0-397.03 178.11-397.03 397.04s178.11 397.03 397.03 397.03S907.7 732.46 907.7 513.54 729.6 116.5 510.67 116.5z" p-id="8734"></path><path d="M399.29 664.29c-13.81 0-25-11.19-25-25v-250c0-13.81 11.19-25 25-25s25 11.19 25 25v250c0 13.81-11.2 25-25 25zM624.71 664.29c-13.81 0-25-11.19-25-25v-250c0-13.81 11.19-25 25-25s25 11.19 25 25v250c0 13.81-11.19 25-25 25z" p-id="8735"></path></svg>