<?xml version="1.0" standalone="no"?><!DOCTYPE svg PUBLIC "-//W3C//DTD SVG 1.1//EN" "http://www.w3.org/Graphics/SVG/1.1/DTD/svg11.dtd"><svg t="1689758102208" class="icon" viewBox="0 0 1212 1024" version="1.1" xmlns="http://www.w3.org/2000/svg" p-id="19645" xmlns:xlink="http://www.w3.org/1999/xlink" width="236.71875" height="200"><path d="M165.266759 826.333795l155.185487 180.416212c19.832011 23.082257 52.554829 22.861902 72.552107 0L550.889196 826.333795l605.812849 0C1187.221307 826.333795 1211.956232 801.59887 1211.956232 770.859253L1211.956232 55.529631C1211.956232 24.845103 1187.772197 0 1156.757135 0L55.199097 0C24.734925 0 0 24.734925 0 55.529631l0 715.329622C0 801.488692 24.404391 826.333795 55.033831 826.333795L165.266759 826.333795zM220.355679 232.585419C220.355679 225.864571 225.809482 220.355679 232.475241 220.355679l691.916831 0C931.168009 220.355679 936.511634 225.809482 936.511634 232.585419l0 30.629439C936.511634 269.935706 931.057831 275.444598 924.392072 275.444598L232.475241 275.444598C225.699304 275.444598 220.355679 269.990795 220.355679 263.214858L220.355679 232.585419zM220.355679 397.852178C220.355679 391.13133 225.809482 385.622438 232.475241 385.622438l691.916831 0C931.168009 385.622438 936.511634 391.076241 936.511634 397.852178l0 30.629439C936.511634 435.202465 931.057831 440.711357 924.392072 440.711357L232.475241 440.711357C225.699304 440.711357 220.355679 435.257554 220.355679 428.481617L220.355679 397.852178zM220.355679 563.118937C220.355679 556.398088 225.534037 550.889196 231.869263 550.889196l472.773108 0C710.922508 550.889196 716.155955 556.343 716.155955 563.118937l0 30.629439C716.155955 600.469224 710.977597 605.978116 704.642371 605.978116L231.869263 605.978116C225.589126 605.978116 220.355679 600.524313 220.355679 593.748376L220.355679 563.118937z" p-id="19646"></path></svg>