<?xml version="1.0" ?><!DOCTYPE svg  PUBLIC '-//W3C//DTD SVG 1.1//EN'  'http://www.w3.org/Graphics/SVG/1.1/DTD/svg11.dtd'><svg height="512px" style="enable-background:new 0 0 512 512;" version="1.1" viewBox="0 0 512 512" width="512px" xml:space="preserve" xmlns="http://www.w3.org/2000/svg" xmlns:xlink="http://www.w3.org/1999/xlink"><g id="_x36_26_x2C__email__x2C__love_x2C__glasses_x2C__wedding"><g><path d="M444.38,405.811c7.51,0,13.59,6.09,13.59,13.6c0,7.5-6.08,13.59-13.59,13.59    c-7.5,0-13.59-6.09-13.59-13.59C430.79,411.9,436.88,405.811,444.38,405.811z" style="fill:#EF3E5C;"/><path d="M447.755,416.521c4.021,0,7.619,1.756,10.106,4.529c0.064-0.539,0.108-1.084,0.108-1.64    c0-7.51-6.08-13.6-13.59-13.6c-7.5,0-13.59,6.09-13.59,13.6c0,3.484,1.325,6.653,3.485,9.061    C435.091,421.74,440.813,416.521,447.755,416.521z" style="fill:#E42A53;"/><path d="M371.89,360.511c7.511,0,13.591,6.079,13.591,13.59c0,7.51-6.08,13.59-13.591,13.59    c-7.5,0-13.59-6.08-13.59-13.59C358.3,366.59,364.39,360.511,371.89,360.511z" style="fill:#EF3E5C;"/><path d="M363.3,382.434c0-7.511,6.09-13.59,13.59-13.59c3.163,0,6.064,1.088,8.373,2.896    c-1.118-6.382-6.669-11.229-13.373-11.229c-7.5,0-13.59,6.079-13.59,13.59c0,4.346,2.047,8.203,5.218,10.689    C363.383,384.023,363.3,383.239,363.3,382.434z" style="fill:#E42A53;"/><path d="M127.24,70.55c7.51,0,13.59,6.08,13.59,13.59c0,7.511-6.08,13.591-13.59,13.591    c-7.51,0-13.59-6.08-13.59-13.591C113.65,76.63,119.73,70.55,127.24,70.55z" style="fill:#EF3E5C;"/><path d="M118.65,94.307c0-7.51,6.08-13.59,13.59-13.59c3.252,0,6.233,1.143,8.571,3.045    c-0.202-7.333-6.188-13.212-13.571-13.212c-7.51,0-13.59,6.08-13.59,13.59c0,4.259,1.958,8.054,5.019,10.545    C118.666,94.558,118.65,94.435,118.65,94.307z" style="fill:#E42A53;"/><path d="M470.84,124.73L334.77,201.42l-51.02,28.76l-24.83-51.119L192.71,42.76L470.84,124.73z     M345.92,131.92c2.17-7.38-2.88-15.39-11.26-17.859c-7.601-2.24-12.43-0.03-18.2,5.55c-1.83-7.82-4.64-12.28-12.24-14.521    c-8.38-2.47-16.97,1.521-19.149,8.9c-3.94,13.39,7.31,31.28,18.56,49.149C322.82,154.24,341.97,145.311,345.92,131.92z" style="fill:#FFECB2;"/><g><polygon points="271.836,199.998 205.626,63.697 450.881,135.979 470.84,124.73 192.71,42.76      258.92,179.061 283.75,230.18 285.906,228.965    " style="fill:#EDD89A;"/></g><path d="M334.66,114.061c8.38,2.47,13.43,10.479,11.26,17.859c-3.95,13.391-23.1,22.32-42.29,31.22    c-11.25-17.869-22.5-35.76-18.56-49.149c2.18-7.38,10.77-11.37,19.149-8.9c7.601,2.24,10.41,6.7,12.24,14.521    C322.23,114.03,327.06,111.82,334.66,114.061z" style="fill:#EF3E5C;"/><g><g><g><path d="M296.947,122.323c2.017-6.827,9.521-10.742,17.268-9.336c-1.937-3.868-4.878-6.39-9.995-7.897       c-8.38-2.47-16.97,1.521-19.149,8.9c-3.94,13.39,7.31,31.28,18.56,49.149c1.74-0.807,3.479-1.614,5.208-2.425       C300.345,146.583,293.8,133.018,296.947,122.323z" style="fill:#E42A53;"/></g><g><path d="M328.337,127.943c5.288-5.113,9.791-7.385,16.354-6.008c-1.972-3.59-5.509-6.542-10.031-7.875       c-5.449-1.606-9.473-0.914-13.441,1.656C325.117,118.287,326.995,122.209,328.337,127.943z" style="fill:#E42A53;"/></g></g></g><polygon points="470.84,124.73 409.37,333.32 334.77,201.42   " style="fill:#F7B64C;"/><polygon points="346.335,206.421 466.77,138.544 470.84,124.73 334.77,201.42 409.37,333.32     412.363,323.164   " style="fill:#E2A042;"/><polygon points="131.23,251.36 258.92,179.061 283.75,230.18 334.77,201.42 409.37,333.32 331.12,310.261     331.12,251.771 132.65,251.771   " style="fill:#F78F4B;"/><polygon points="148.887,251.771 254.93,191.727 279.76,242.847 330.779,214.087 395.985,329.376     409.37,333.32 334.77,201.42 283.75,230.18 258.92,179.061 131.23,251.36 132.65,251.771   " style="fill:#E57B41;"/><polygon points="192.71,42.76 258.92,179.061 131.23,251.36   " style="fill:#F7B64C;"/><polygon points="192.709,65.55 250.237,183.977 258.92,179.061 192.71,42.76 131.23,251.36     139.292,246.796   " style="fill:#E2A042;"/><path d="M197.47,280.04c8.74,0,15.85,6.261,15.85,13.95c0,13.95-15.85,27.94-31.73,41.9    c-15.85-13.96-31.7-27.95-31.7-41.9c0-7.689,7.11-13.95,15.85-13.95c7.92,0,11.88,3.49,15.85,10.46    C185.55,283.53,189.55,280.04,197.47,280.04z" style="fill:#EF3E5C;"/><g><g><g><path d="M160.995,299.823c0-7.689,7.11-13.95,15.85-13.95c0.597,0,1.164,0.026,1.718,0.066       c-3.162-3.932-6.876-5.899-12.823-5.899c-8.74,0-15.85,6.261-15.85,13.95c0,13.95,15.85,27.94,31.7,41.9       c0.766-0.674,1.532-1.347,2.296-2.021C171.459,322.52,160.995,311.158,160.995,299.823z" style="fill:#E42A53;"/></g></g></g><path d="M331.12,251.771l-108.84,112.03l-40.82,42.01l-38.26-42.01L41.16,251.771h27.18h64.31H331.12z     M213.32,293.99c0-7.689-7.11-13.95-15.85-13.95c-7.92,0-11.92,3.49-15.88,10.46c-3.97-6.97-7.93-10.46-15.85-10.46    c-8.74,0-15.85,6.261-15.85,13.95c0,13.95,15.85,27.94,31.7,41.9C197.47,321.931,213.32,307.94,213.32,293.99z" style="fill:#FFECB2;"/><g><polygon points="165.38,375.901 63.34,263.871 90.52,263.871 154.83,263.871 319.364,263.871      331.12,251.771 132.65,251.771 68.34,251.771 41.16,251.771 143.2,363.801 181.46,405.811 187.22,399.883    " style="fill:#EDD89A;"/></g><polygon points="41.16,251.771 143.2,363.801 41.16,469.24   " style="fill:#F7B64C;"/><polygon points="47.85,272.771 136.793,370.422 143.2,363.801 41.16,251.771 41.16,469.24 47.85,462.327       " style="fill:#E2A042;"/><polygon points="331.12,469.24 41.16,469.24 143.2,363.801 181.46,405.811 222.28,363.801   " style="fill:#F78F4B;"/><polygon points="146.85,377.467 185.109,419.477 225.929,377.467 320.663,469.24 331.12,469.24     222.28,363.801 181.46,405.811 143.2,363.801 41.16,469.24 58.035,469.24   " style="fill:#E57B41;"/><polygon points="331.12,310.261 331.12,469.24 222.28,363.801 331.12,251.771   " style="fill:#F7B64C;"/><polygon points="234.613,365.468 331.12,266.132 331.12,251.771 222.28,363.801 331.12,469.24     331.12,458.96   " style="fill:#E2A042;"/></g></g><g id="Layer_1"/></svg>