<?xml version="1.0" standalone="no"?><!DOCTYPE svg PUBLIC "-//W3C//DTD SVG 1.1//EN" "http://www.w3.org/Graphics/SVG/1.1/DTD/svg11.dtd"><svg t="1688351221444" class="icon" viewBox="0 0 1024 1024" version="1.1" xmlns="http://www.w3.org/2000/svg" p-id="2635" xmlns:xlink="http://www.w3.org/1999/xlink" width="200" height="200"><path d="M716.8 0H307.2C137.5488 0 0 137.5488 0 307.2v409.6c0 169.6512 137.5488 307.2 307.2 307.2h409.6c169.6512 0 307.2-137.5488 307.2-307.2V307.2c0-169.6512-137.5488-307.2-307.2-307.2z" fill="#FED9FF" p-id="2636"></path><path d="M287.9232 606.464l75.6224-7.2704c2.176 0.0256 4.352-0.2048 6.528-0.6912 8.1664-1.3824 14.9248-6.4256 18.7392-13.2864l30.5152-31.1808a26.5216 26.5216 0 0 0-37.888-37.0688l-29.44 30.08-66.7392 6.4v-2.432a26.496 26.496 0 1 0-53.0176 0v159.0528a26.5216 26.5216 0 0 0 53.0176 0v-103.4752c0.8704 0 1.7664-0.0512 2.6624-0.128z" fill="#F094FF" p-id="2637"></path><path d="M413.0304 248.448a26.5216 26.5216 0 0 0-40.9344 6.016l-66.0736 112.6912 357.5552 332.4416 107.5968-74.0864c13.952-9.6256 15.4112-29.696 2.9952-41.2416L413.0304 248.448z m228.096 466.6112L292.1984 390.6816l-16.8448 28.7232c-6.272 10.7264-4.2752 24.3712 4.8128 32.8192l300.416 279.296c9.088 8.4736 22.8352 9.472 33.0752 2.432l27.4176-18.8928z" fill="#C862D9" p-id="2638"></path><path d="M566.7072 418.4832m8.92583 8.182456l124.886142 114.485192q8.92583 8.182456 0.743373 17.108287l0.0173-0.018871q-8.182456 8.92583-17.108287 0.743374l-124.886141-114.485192q-8.92583-8.182456-0.743374-17.108286l-0.017299 0.01887q8.182456-8.92583 17.108286-0.743374Z" fill="#FFFFFF" p-id="2639"></path><path d="M721.2032 553.8048m8.92583 8.182456l-0.01887-0.017299q8.92583 8.182456 0.743374 17.108287l0.017299-0.018871q-8.182456 8.92583-17.108287 0.743374l0.018871 0.017299q-8.92583-8.182456-0.743374-17.108286l-0.017299 0.01887q8.182456-8.92583 17.108286-0.743374Z" fill="#FFFFFF" p-id="2640"></path></svg>