<?xml version="1.0" ?><svg id="Layer_1" style="enable-background:new 0 0 50 50;" version="1.1" viewBox="0 0 50 50" xml:space="preserve" xmlns="http://www.w3.org/2000/svg" xmlns:xlink="http://www.w3.org/1999/xlink"><style type="text/css">
	.st0{fill:#F0C4DB;}
	.st1{fill:#FF9D9C;}
	.st2{fill:#9BEAF9;}
	.st3{fill:#E9F4BC;}
	.st4{fill:#505050;}
	.st5{fill:#FEBECC;}
	.st6{fill:#FFFFFF;}
	.st7{fill:#FDE4A1;}
	.st8{fill:#FEE7B5;}
	.st9{fill:#CDF6FC;}
	.st10{fill:#F2C6DD;}
	.st11{opacity:0.1;}
</style><g><path class="st5" d="M24.54,48.75c0.85-2.11,1.33-4.41,1.33-6.82c0,0-15.89,6.07-18.21-18.21c-0.22-2.27-4.44,0.44-6.45,1.2v23.83   H24.54z"/><g><g><path class="st6" d="M25.03,11.76c-0.78,0-1.41-0.63-1.41-1.41V3.4c0-0.78,0.63-1.41,1.41-1.41s1.41,0.63,1.41,1.41v6.95     C26.44,11.13,25.81,11.76,25.03,11.76z"/><path class="st6" d="M25.03,48c-0.78,0-1.41-0.63-1.41-1.41v-6.95c0-0.78,0.63-1.41,1.41-1.41s1.41,0.63,1.41,1.41v6.95     C26.44,47.37,25.81,48,25.03,48z"/><path class="st6" d="M46.62,26.4h-6.95c-0.78,0-1.41-0.63-1.41-1.41s0.63-1.41,1.41-1.41h6.95c0.78,0,1.41,0.63,1.41,1.41     S47.4,26.4,46.62,26.4z"/><path class="st6" d="M10.39,26.4H3.44c-0.78,0-1.41-0.63-1.41-1.41s0.63-1.41,1.41-1.41h6.95c0.78,0,1.41,0.63,1.41,1.41     S11.16,26.4,10.39,26.4z"/><g><path class="st3" d="M29.17,20.08c0,2.29-1.85,4.14-4.14,4.14c-2.29,0-4.14-1.85-4.14-4.14c0-2.29,1.85-4.14,4.14-4.14      C27.32,15.94,29.17,17.79,29.17,20.08z"/><path class="st2" d="M32.84,31.89v2.16H17.23v-2.16c0.08-4.25,3.54-7.67,7.8-7.67C29.3,24.22,32.76,27.64,32.84,31.89z"/></g><g><path class="st1" d="M26.44,7.7c8.45,0.68,15.2,7.43,15.88,15.88h2.82c-0.69-10.02-8.68-18.01-18.7-18.7V7.7z"/><path class="st1" d="M7.74,23.59c0.68-8.45,7.43-15.2,15.89-15.88V4.89c-10.02,0.69-18.01,8.68-18.7,18.7H7.74z"/><path class="st1" d="M42.32,26.4c-0.68,8.45-7.43,15.2-15.88,15.88v2.82c10.02-0.69,18.01-8.68,18.7-18.7H42.32z"/><path class="st1" d="M23.62,42.29c-8.45-0.68-15.2-7.43-15.89-15.88H4.92c0.69,10.02,8.68,18.01,18.7,18.7V42.29z"/></g></g><g><path class="st4" d="M46.62,22.84h-0.82C44.8,13.06,36.97,5.23,27.19,4.22V3.4c0-1.19-0.97-2.16-2.16-2.16s-2.16,0.97-2.16,2.16     v0.81C18,4.72,13.44,6.9,10.02,10.44c-0.29,0.3-0.28,0.77,0.01,1.06c0.29,0.28,0.78,0.27,1.06-0.02     c3.14-3.23,7.32-5.28,11.79-5.78v1.32c-4,0.48-7.78,2.32-10.64,5.18c-2.86,2.86-4.7,6.64-5.18,10.63H5.74     c0.33-2.95,1.35-5.84,2.96-8.34c0.11-0.16,0.15-0.37,0.1-0.56c-0.04-0.2-0.15-0.36-0.32-0.47c-0.34-0.22-0.82-0.11-1.04,0.22     c0,0.01,0,0.01,0,0.02c-1.77,2.74-2.86,5.89-3.19,9.13H3.44c-1.19,0-2.16,0.97-2.16,2.16s0.97,2.16,2.16,2.16h0.81     c1.01,9.78,8.84,17.61,18.62,18.62v0.82c0,1.19,0.97,2.16,2.16,2.16s2.16-0.97,2.16-2.16v-0.82c4.88-0.51,9.43-2.69,12.86-6.23     c0.29-0.3,0.28-0.77-0.02-1.06c-0.29-0.28-0.78-0.27-1.05,0.02c-3.14,3.24-7.33,5.29-11.79,5.78v-1.32     c4-0.48,7.78-2.31,10.64-5.17c2.86-2.87,4.7-6.64,5.17-10.64h1.32c-0.33,2.99-1.32,5.8-2.96,8.34c-0.22,0.34-0.12,0.81,0.23,1.03     c0.34,0.22,0.82,0.12,1.04-0.22c1.76-2.74,2.85-5.9,3.19-9.15h0.81c1.19,0,2.16-0.97,2.16-2.16S47.81,22.84,46.62,22.84z      M44.32,22.84H43c-0.99-8.32-7.49-14.83-15.81-15.81V5.71C36.15,6.7,43.32,13.88,44.32,22.84z M25.03,2.75     c0.36,0,0.66,0.3,0.66,0.66v6.95c0,0.36-0.29,0.66-0.66,0.66s-0.66-0.3-0.66-0.66V3.4C24.37,3.04,24.67,2.75,25.03,2.75z      M2.78,25c0-0.36,0.29-0.66,0.66-0.66h6.95c0.36,0,0.66,0.3,0.66,0.66s-0.29,0.66-0.66,0.66H3.44C3.08,25.65,2.78,25.36,2.78,25z      M5.74,27.15h1.32c0.99,8.32,7.49,14.83,15.81,15.81v1.32C13.91,43.29,6.74,36.11,5.74,27.15z M25.03,47.25     c-0.36,0-0.66-0.3-0.66-0.66v-6.95c0-0.36,0.29-0.66,0.66-0.66s0.66,0.3,0.66,0.66v6.95C25.69,46.95,25.4,47.25,25.03,47.25z      M27.19,41.44v-1.8c0-1.19-0.97-2.16-2.16-2.16s-2.16,0.97-2.16,2.16v1.8c-7.49-0.97-13.32-6.8-14.28-14.29h1.8     c1.19,0,2.16-0.97,2.16-2.16s-0.97-2.16-2.16-2.16h-1.8c0.96-7.48,6.8-13.31,14.28-14.28v1.79c0,1.19,0.97,2.16,2.16,2.16     s2.16-0.97,2.16-2.16v-1.8c7.48,0.97,13.32,6.8,14.28,14.29h-1.8c-1.19,0-2.16,0.97-2.16,2.16s0.97,2.16,2.16,2.16h1.8     C40.51,34.64,34.68,40.47,27.19,41.44z M46.62,25.65h-6.95c-0.36,0-0.66-0.3-0.66-0.66s0.29-0.66,0.66-0.66h6.95     c0.36,0,0.66,0.3,0.66,0.66S46.99,25.65,46.62,25.65z"/><path class="st4" d="M27.93,23.99c1.2-0.89,1.99-2.31,1.99-3.91c0-2.7-2.19-4.89-4.89-4.89c-2.7,0-4.89,2.19-4.89,4.89     c0,1.61,0.79,3.02,1.99,3.91c-3.23,1.18-5.59,4.27-5.65,7.9v2.16c0,0.41,0.34,0.75,0.75,0.75h15.61c0.41,0,0.75-0.34,0.75-0.75     v-2.16c0,0,0-0.01,0-0.01C33.52,28.26,31.16,25.18,27.93,23.99z M25.03,16.69c1.87,0,3.39,1.52,3.39,3.39s-1.52,3.39-3.39,3.39     c-1.87,0-3.39-1.52-3.39-3.39S23.16,16.69,25.03,16.69z M32.09,33.3H17.98v-1.4c0.07-3.82,3.24-6.94,7.05-6.94     c3.82,0,6.98,3.11,7.06,6.93V33.3z"/><path class="st4" d="M9.24,13.22c0.23,0,0.44-0.11,0.58-0.29c0.01,0,0.01-0.01,0.01-0.01c0.12-0.15,0.17-0.34,0.15-0.54     c-0.02-0.2-0.12-0.38-0.28-0.5C9.39,11.63,8.9,11.69,8.65,12c-0.13,0.16-0.18,0.35-0.16,0.55c0.02,0.2,0.12,0.38,0.28,0.5     C8.9,13.16,9.06,13.22,9.24,13.22z"/><path class="st4" d="M40.24,37.05c-0.12,0.16-0.18,0.35-0.15,0.55c0.02,0.2,0.12,0.38,0.28,0.5c0.13,0.11,0.29,0.17,0.46,0.17     c0.23,0,0.45-0.11,0.59-0.29c0.26-0.32,0.2-0.79-0.12-1.05C40.98,36.68,40.49,36.74,40.24,37.05z"/></g></g></g></svg>